<?xml version="1.0" encoding="UTF-8" standalone="no"?>
<!-- Created with Inkscape (http://www.inkscape.org/) -->

<svg
   width="320"
   height="240"
   viewBox="0 0 320 240"
   version="1.1"
   id="svg8"
   inkscape:version="1.2 (1:1.2.1+202207142221+cd75a1ee6d)"
   sodipodi:docname="FCU.start.svg"
   xmlns:inkscape="http://www.inkscape.org/namespaces/inkscape"
   xmlns:sodipodi="http://sodipodi.sourceforge.net/DTD/sodipodi-0.dtd"
   xmlns="http://www.w3.org/2000/svg"
   xmlns:svg="http://www.w3.org/2000/svg"
   xmlns:rdf="http://www.w3.org/1999/02/22-rdf-syntax-ns#"
   xmlns:cc="http://creativecommons.org/ns#"
   xmlns:dc="http://purl.org/dc/elements/1.1/">
  <defs
     id="defs2" />
  <sodipodi:namedview
     id="base"
     pagecolor="#4b4b4b"
     bordercolor="#666666"
     borderopacity="1.0"
     inkscape:pageopacity="0"
     inkscape:pageshadow="2"
     inkscape:zoom="1.979899"
     inkscape:cx="186.87822"
     inkscape:cy="127.53176"
     inkscape:document-units="px"
     inkscape:current-layer="layer1"
     showgrid="false"
     units="px"
     inkscape:showpageshadow="false"
     inkscape:window-width="1680"
     inkscape:window-height="991"
     inkscape:window-x="0"
     inkscape:window-y="0"
     inkscape:window-maximized="1"
     inkscape:pagecheckerboard="1"
     inkscape:deskcolor="#4b4b4b" />
  <metadata
     id="metadata5">
    <rdf:RDF>
      <cc:Work
         rdf:about="">
        <dc:format>image/svg+xml</dc:format>
        <dc:type
           rdf:resource="http://purl.org/dc/dcmitype/StillImage" />
        <dc:title />
      </cc:Work>
    </rdf:RDF>
  </metadata>
  <g
     inkscape:label="Ebene 1"
     inkscape:groupmode="layer"
     id="layer1"
     transform="translate(0,-233.49998)">
    <text
       xml:space="preserve"
       style="font-style:normal;font-variant:normal;font-weight:bold;font-stretch:normal;font-size:25.4608px;line-height:100%;font-family:'Liberation Sans';-inkscape-font-specification:'Liberation Sans Bold';text-align:start;letter-spacing:0px;word-spacing:0px;text-anchor:start;fill:#ffffff;fill-opacity:1;stroke:none;stroke-width:0.63652px;stroke-linecap:butt;stroke-linejoin:miter;stroke-opacity:1"
       x="82.050636"
       y="426.68036"
       id="FES"
       transform="scale(0.92316555,1.0832293)"><tspan
         sodipodi:role="line"
         id="tspan845"
         x="82.050636"
         y="426.68036"
         style="stroke-width:0.63652px">FES</tspan></text>
    <text
       transform="scale(0.92316557,1.0832293)"
       id="version_number"
       y="412.91016"
       x="148.3477"
       style="font-style:normal;font-variant:normal;font-weight:bold;font-stretch:normal;font-size:17.5443px;line-height:100%;font-family:'Liberation Sans';-inkscape-font-specification:'Liberation Sans Bold';text-align:start;letter-spacing:0px;word-spacing:0px;text-anchor:start;fill:#ffffff;fill-opacity:1;stroke:none;stroke-width:0.438608px;stroke-linecap:butt;stroke-linejoin:miter;stroke-opacity:1"
       xml:space="preserve"><tspan
         style="stroke-width:0.438608px"
         y="412.91016"
         x="148.3477"
         id="tspan849"
         sodipodi:role="line">FES ver X.XX</tspan><tspan
         style="stroke-width:0.438608px"
         y="430.45447"
         x="148.3477"
         sodipodi:role="line"
         id="tspan853">Mon 99 9999 SN:00000</tspan></text>
    <rect
       style="fill:#000000;stroke-width:0.72935814"
       id="black"
       width="30.625648"
       height="81.668396"
       x="46.357719"
       y="289.22412" />
    <path
       id="yellow"
       style="fill:#fbfc46;stroke-width:0.72935814"
       d="m 46.357709,289.22411 h 10.20855 v 10.20855 h -10.20855 z m 0,20.4171 h 10.20855 v 10.20855 h -10.20855 z m 0,20.4171 h 10.20855 v 10.20855 h -10.20855 z m 0,20.41712 h 10.20855 v 10.20854 h -10.20855 z m 20.417113,-61.25132 h 10.208536 v 10.20855 H 66.774822 Z m 0,20.4171 h 10.208536 v 10.20855 H 66.774822 Z m 0,20.4171 h 10.208536 v 10.20855 H 66.774822 Z m 0,20.41712 h 10.208536 v 10.20854 H 66.774822 Z M 56.566259,299.43266 h 10.208563 v 10.20855 H 56.566259 Z m 0,20.4171 h 10.208563 v 10.20855 H 56.566259 Z m 0,20.4171 h 10.208563 v 10.20857 H 56.566259 Z m 0,20.41711 h 10.208563 v 10.20856 H 56.566259 Z"
       inkscape:connector-curvature="0" />
    <path
       style="fill:#427ebf;stroke-width:0.72935814"
       d="m 86.13774,300.46628 c -0.678661,0 -1.225029,0.54635 -1.225029,1.22503 v 4.10894 4.47898 13.87089 8.54965 25.72554 c 0,0.67866 0.546368,1.22502 1.225029,1.22502 h 11.918494 c 0.67866,0 1.225028,-0.54636 1.225028,-1.22502 V 333.9248 h 21.195498 c 0.67867,0 1.22502,-0.54637 1.22502,-1.22503 v -8.54965 c 0,-0.67868 -0.54635,-1.22505 -1.22502,-1.22505 H 99.281262 v -11.42081 h 22.841618 c 0.67868,0 1.22503,-0.54635 1.22503,-1.22503 v -8.58792 c 0,-0.67868 -0.54635,-1.22503 -1.22503,-1.22503 z"
       id="F"
       inkscape:connector-curvature="0" />
    <text
       transform="scale(0.92316557,1.0832293)"
       id="title"
       y="300.97797"
       x="157.55629"
       style="font-style:normal;font-variant:normal;font-weight:bold;font-stretch:normal;font-size:26.7775px;line-height:100%;font-family:'Liberation Sans';-inkscape-font-specification:'Liberation Sans Bold';text-align:start;letter-spacing:0px;word-spacing:0px;text-anchor:start;fill:#ffffff;fill-opacity:1;stroke:none;stroke-width:0.669437px;stroke-linecap:butt;stroke-linejoin:miter;stroke-opacity:1"
       xml:space="preserve"><tspan
         style="stroke-width:0.669437px"
         y="300.97797"
         x="157.55629"
         id="tspan1847"
         sodipodi:role="line">FES FCU</tspan><tspan
         style="stroke-width:0.669437px"
         y="327.75543"
         x="157.55629"
         sodipodi:role="line"
         id="tspan1851">simulation</tspan></text>
  </g>
</svg>
